# xmcd CD database file
#
# Track frame offsets:
#	183
#	11790
#	23765
#	35575
#	47163
#	57635
#	70043
#	82833
#	95365
#	107645
#	119198
#	130733
#	141705
#	152088
#	164338
#	175605
#	187855
#	198998
#	210470
#	222278
#	236390
#	247670
#	257380
#	268870
#	279790
#	288835
#
# Disc length: 4040 seconds
#
# Revision: 5
# Processed by: cddbd v1.5.2PL0 Copyright (c) Steve Scherf et al.
# Submitted via: CDex 1.79
#
DISCID=6b0fc61a
DTITLE=Various Artist - Capitol Country Music Classics 1950's
DYEAR=1950
DGENRE=Country
TTITLE0=Margaret Whiting and Jimmy Wakely - Broken Down Merry-Go-Round
TTITLE1=Tennessee Ernie Ford and Kay Starr - I'll Never Be Free
TTITLE2=Tennessee Ernie Ford - The Shot Gun Boogie
TTITLE3=Jimmie Dolan - Hot Rod Race
TTITLE4=Les Paul and Mary Ford - Mockin' Bird Hill
TTITLE5=Hank Thompson - The Wild Side Of Life
TTITLE6=Tex Ritter - High Noon (Do Not Forsake Me)
TTITLE7=Skeets McDonald - Don't Let the Stars Get In Your Eyes
TTITLE8=Faron Young - Goin' Steady
TTITLE9=Sonny James - That's Me Without You
TTITLE10=Ferlin Husky and Jean Shepard - A Dear John Letter
TTITLE11=Ferlin Husky and Jean Shepard - Forgive Me, John
TTITLE12=Hank Thompson - Wake Up Irene
TTITLE13=Jimmy Heap and the Melody Masters - Release Me
TTITLE14=Tommy Collins - You Better Not Do That
TTITLE15=Tommy Collins - Whatcha Gonna Do
TTITLE16=Jean Shepard - A Satisfied Mind
TTITLE17=The Louvin Brothers - When I Stop Dreaming
TTITLE18=Tennessee Ernie Ford - Sixteen Tons
TTITLE19=Wynn Stewart - Waltz Of The Angels
TTITLE20=Wanda Jackson - I Gotta Know
TTITLE21=The Louvin Brothers - I Don't Believe You've Met My Baby
TTITLE22=Sonny James - Young Love
TTITLE23=Ferlin Husky - Gone
TTITLE24=Faron Young - Alone With You
TTITLE25=Simon Crum - Country Music Is Here To Stay
EXTD=
EXTT0=
EXTT1=
EXTT2=
EXTT3=
EXTT4=
EXTT5=
EXTT6=
EXTT7=
EXTT8=
EXTT9=
EXTT10=
EXTT11=
EXTT12=
EXTT13=
EXTT14=
EXTT15=
EXTT16=
EXTT17=
EXTT18=
EXTT19=
EXTT20=
EXTT21=
EXTT22=
EXTT23=
EXTT24=
EXTT25=
PLAYORDER=
